mtllib material.mtl
usemtl material_0
v -0.01999900 0.00036400 0.76093600
v -0.01992800 -0.00029300 0.76017900
v -0.01992800 -0.00029300 0.76017900
v -0.02014400 -0.04724100 0.80854100
v -0.02014400 -0.04724100 0.80854100
v -0.02037100 -0.04788100 0.80776700
v -0.01973000 -0.04848700 0.80837300
v -0.01973000 -0.04848700 0.80837300
v -0.01973000 -0.04848700 0.80837300
v -0.01975000 0.00589500 0.75540500
v -0.01975000 0.00589500 0.75540500
v -0.01975000 0.00589500 0.75540500
v -0.01975000 0.00518800 0.75469800
v -0.01975000 0.00518800 0.75469800
v -0.01975000 -0.04784500 0.80914500
v -0.01975000 -0.04784500 0.80914500
v -0.01975000 -0.04784500 0.80914500
v 0.01975000 0.00589500 0.75540500
v 0.01975000 0.00589500 0.75540500
v 0.01975000 0.00518800 0.75469800
v 0.01975000 0.00518800 0.75469800
v 0.01975000 0.00518800 0.75469800
v 0.01992800 0.00041400 0.76088600
v 0.01992800 0.00041400 0.76088600
v 0.01999900 -0.00034300 0.76022900
v 0.01973000 -0.04778000 0.80908000
v 0.01973000 -0.04778000 0.80908000
v 0.01973000 -0.04778000 0.80908000
v 0.01975000 -0.04855200 0.80843800
v 0.01975000 -0.04855200 0.80843800
v 0.01975000 -0.04855200 0.80843800
v 0.02014400 -0.04794800 0.80783400
v 0.02014400 -0.04794800 0.80783400
v 0.02037100 -0.04717400 0.80847400
vn -0.99710000 -0.02620000 -0.07110000
vn -0.99710000 -0.02620000 -0.07110000
vn -0.99970000 0.01620000 -0.01620000
vn -0.76750000 -0.49060000 0.41270000
vn -0.92150000 -0.25180000 0.29560000
vn -0.61180000 -0.46850000 0.63740000
vn -0.00230000 -0.76910000 0.63910000
vn -0.78470000 -0.39420000 0.47840000
vn -0.92220000 -0.17560000 0.34450000
vn -0.00000000 0.70710000 -0.70710000
vn -0.99710000 -0.02620000 -0.07110000
vn -0.99970000 0.01620000 -0.01620000
vn -0.99970000 0.01620000 -0.01620000
vn -0.00000000 0.70710000 -0.70710000
vn 0.00230000 -0.63910000 0.76910000
vn -0.98410000 -0.15820000 0.08030000
vn -0.00230000 -0.76910000 0.63910000
vn 0.99970000 0.01620000 -0.01620000
vn -0.00000000 0.70710000 -0.70710000
vn -0.00000000 0.70710000 -0.70710000
vn 0.99970000 0.01620000 -0.01620000
vn 0.99710000 0.07110000 0.02620000
vn 0.99970000 0.01620000 -0.01620000
vn 0.99710000 0.07110000 0.02620000
vn 0.99710000 0.07110000 0.02620000
vn 0.92220000 -0.34460000 0.17560000
vn 0.00230000 -0.63910000 0.76910000
vn 0.78470000 -0.47840000 0.39430000
vn 0.00230000 -0.63910000 0.76910000
vn -0.00230000 -0.76910000 0.63910000
vn 0.98410000 -0.08030000 0.15820000
vn 0.76740000 -0.41270000 0.49060000
vn 0.92150000 -0.29560000 0.25180000
vn 0.61170000 -0.63740000 0.46850000
vt 7.60000000 0.00000000
vt 7.60000000 0.10000000
vt 7.60000000 0.10000000
vt 0.00000000 0.01729400
vt 0.00000000 0.01729400
vt -0.10000000 0.04012700
vt 3.95000000 0.10000000
vt -0.10000000 -0.07005200
vt -0.10000000 -0.07005200
vt 0.00000000 0.00000000
vt 8.30000000 0.00000000
vt 8.30000000 0.00000000
vt 8.30000000 0.10000000
vt 0.00000000 0.10000000
vt 3.95000000 0.00000000
vt 0.00000000 -0.07854000
vt 3.95000000 0.00000000
vt 0.00000000 0.00000000
vt 3.95000000 0.00000000
vt 3.95000000 0.10000000
vt 0.00000000 0.10000000
vt 0.00000000 0.10000000
vt 0.70000000 0.00000000
vt 0.70000000 0.00000000
vt 0.70000000 0.10000000
vt 0.00000000 -0.07005000
vt 0.00000000 0.00000000
vt 0.00000000 -0.07005000
vt 0.00000000 0.10000000
vt 0.00000000 0.10000000
vt 0.10000000 -0.07854000
vt 0.10000000 0.01729900
vt 0.10000000 0.01729900
vt 0.00000000 0.04012800
f 1/1/1 11/11/11 2/2/2
f 3/3/3 12/12/12 13/13/13
f 25/25/25 22/22/22 24/24/24
f 23/23/23 21/21/21 18/18/18
f 33/33/33 34/34/34 26/26/26
f 32/32/32 28/28/28 31/31/31
f 5/5/5 6/6/6 9/9/9
f 4/4/4 8/8/8 16/16/16
f 27/27/27 15/15/15 29/29/29
f 30/30/30 17/17/17 7/7/7
f 10/10/10 19/19/19 14/14/14
f 14/14/14 19/19/19 20/20/20

