mtllib material.mtl
usemtl material_0
v 0.25181800 -0.47477300 0.82721800
v 0.25181800 -0.47477300 0.82721800
v 0.25181800 -0.47477300 0.82721800
v 0.25181800 -0.47477300 0.82721800
v 0.25181800 -0.47477300 0.82721800
v 0.25181800 -0.47477300 0.82721800
v 0.25330500 -0.47471600 0.82716900
v 0.25330500 -0.47471600 0.82716900
v 0.25330500 -0.47471600 0.82716900
v 0.25330500 -0.47471600 0.82716900
v 0.25330500 -0.47471600 0.82716900
v 0.25330500 -0.47471600 0.82716900
v 0.25330500 -0.47471600 0.82716900
v 0.25237600 -0.47444900 0.82694200
v 0.25237600 -0.47444900 0.82694200
v 0.25237600 -0.47444900 0.82694200
v 0.25237600 -0.47444900 0.82694200
v 0.25237600 -0.47444900 0.82694200
v 0.25237600 -0.47444900 0.82694200
v 0.25432200 -0.47400100 0.82655900
v 0.25432200 -0.47400100 0.82655900
v 0.25432200 -0.47400100 0.82655900
v 0.25432200 -0.47400100 0.82655900
v 0.25432200 -0.47400100 0.82655900
v 0.25432200 -0.47400100 0.82655900
v 0.25319200 -0.47432000 0.82683200
v 0.25319200 -0.47432000 0.82683200
v 0.25319200 -0.47432000 0.82683200
v 0.25319200 -0.47432000 0.82683200
v 0.25319200 -0.47432000 0.82683200
v 0.25319200 -0.47432000 0.82683200
v 0.25137200 -0.47409800 0.82664200
v 0.25137200 -0.47409800 0.82664200
v 0.25137200 -0.47409800 0.82664200
v 0.25137200 -0.47409800 0.82664200
v 0.25137200 -0.47409800 0.82664200
v 0.25137200 -0.47409800 0.82664200
v 0.25064600 -0.47395200 0.82651700
v 0.25064600 -0.47395200 0.82651700
v 0.25064600 -0.47395200 0.82651700
v 0.25064600 -0.47395200 0.82651700
v 0.25064600 -0.47395200 0.82651700
v 0.25064600 -0.47395200 0.82651700
v 0.25064600 -0.47395200 0.82651700
v 0.25391000 -0.47377600 0.82636800
v 0.25391000 -0.47377600 0.82636800
v 0.25391000 -0.47377600 0.82636800
v 0.25391000 -0.47377600 0.82636800
v 0.25391000 -0.47377600 0.82636800
v 0.25096500 -0.47316300 0.82584400
v 0.25096500 -0.47316300 0.82584400
v 0.25096500 -0.47316300 0.82584400
v 0.25096500 -0.47316300 0.82584400
v 0.25096500 -0.47316300 0.82584400
v 0.25096500 -0.47316300 0.82584400
v 0.25096500 -0.47316300 0.82584400
v 0.25096500 -0.47316300 0.82584400
v 0.25444900 -0.47279100 0.82552700
v 0.25444900 -0.47279100 0.82552700
v 0.25444900 -0.47279100 0.82552700
v 0.25444900 -0.47279100 0.82552700
v 0.25444900 -0.47279100 0.82552700
v 0.25444900 -0.47279100 0.82552700
v 0.25444900 -0.47279100 0.82552700
v 0.25444900 -0.47279100 0.82552700
v 0.25050900 -0.47306500 0.82576100
v 0.25050900 -0.47306500 0.82576100
v 0.25050900 -0.47306500 0.82576100
v 0.25050900 -0.47306500 0.82576100
v 0.25396300 -0.47300000 0.82570500
v 0.25396300 -0.47300000 0.82570500
v 0.25396300 -0.47300000 0.82570500
v 0.25396300 -0.47300000 0.82570500
v 0.25396300 -0.47300000 0.82570500
v 0.25348200 -0.47240000 0.82519400
v 0.25348200 -0.47240000 0.82519400
v 0.25348200 -0.47240000 0.82519400
v 0.25348200 -0.47240000 0.82519400
v 0.25348200 -0.47240000 0.82519400
v 0.25348200 -0.47240000 0.82519400
v 0.25163300 -0.47232200 0.82512800
v 0.25163300 -0.47232200 0.82512800
v 0.25163300 -0.47232200 0.82512800
v 0.25163300 -0.47232200 0.82512800
v 0.25163300 -0.47232200 0.82512800
v 0.25092400 -0.47231900 0.82512400
v 0.25092400 -0.47231900 0.82512400
v 0.25092400 -0.47231900 0.82512400
v 0.25092400 -0.47231900 0.82512400
v 0.25092400 -0.47231900 0.82512400
v 0.25092400 -0.47231900 0.82512400
v 0.25092400 -0.47231900 0.82512400
v 0.25337900 -0.47189100 0.82475900
v 0.25337900 -0.47189100 0.82475900
v 0.25337900 -0.47189100 0.82475900
v 0.25337900 -0.47189100 0.82475900
v 0.25337900 -0.47189100 0.82475900
v 0.25337900 -0.47189100 0.82475900
v 0.25261800 -0.47214700 0.82497800
v 0.25261800 -0.47214700 0.82497800
v 0.25261800 -0.47214700 0.82497800
v 0.25261800 -0.47214700 0.82497800
v 0.25261800 -0.47214700 0.82497800
v 0.25261800 -0.47214700 0.82497800
v 0.25199800 -0.47179700 0.82467900
v 0.25199800 -0.47179700 0.82467900
v 0.25199800 -0.47179700 0.82467900
v 0.25199800 -0.47179700 0.82467900
v 0.25199800 -0.47179700 0.82467900
v 0.25229100 -0.47417700 0.82802300
v 0.25229100 -0.47417700 0.82802300
v 0.25229100 -0.47417700 0.82802300
v 0.25229100 -0.47417700 0.82802300
v 0.25229100 -0.47417700 0.82802300
v 0.25229100 -0.47417700 0.82802300
v 0.25333700 -0.47404700 0.82791300
v 0.25333700 -0.47404700 0.82791300
v 0.25333700 -0.47404700 0.82791300
v 0.25333700 -0.47404700 0.82791300
v 0.25333700 -0.47404700 0.82791300
v 0.25139400 -0.47392700 0.82781100
v 0.25139400 -0.47392700 0.82781100
v 0.25139400 -0.47392700 0.82781100
v 0.25139400 -0.47392700 0.82781100
v 0.25139400 -0.47392700 0.82781100
v 0.25139400 -0.47392700 0.82781100
v 0.25299100 -0.47374300 0.82765300
v 0.25299100 -0.47374300 0.82765300
v 0.25299100 -0.47374300 0.82765300
v 0.25299100 -0.47374300 0.82765300
v 0.25299100 -0.47374300 0.82765300
v 0.25299100 -0.47374300 0.82765300
v 0.25197400 -0.47374200 0.82765200
v 0.25197400 -0.47374200 0.82765200
v 0.25197400 -0.47374200 0.82765200
v 0.25197400 -0.47374200 0.82765200
v 0.25197400 -0.47374200 0.82765200
v 0.25197400 -0.47374200 0.82765200
v 0.25415600 -0.47353000 0.82747100
v 0.25415600 -0.47353000 0.82747100
v 0.25415600 -0.47353000 0.82747100
v 0.25415600 -0.47353000 0.82747100
v 0.25415600 -0.47353000 0.82747100
v 0.25067400 -0.47332500 0.82729700
v 0.25067400 -0.47332500 0.82729700
v 0.25067400 -0.47332500 0.82729700
v 0.25067400 -0.47332500 0.82729700
v 0.25390800 -0.47315500 0.82715200
v 0.25390800 -0.47315500 0.82715200
v 0.25390800 -0.47315500 0.82715200
v 0.25390800 -0.47315500 0.82715200
v 0.25390800 -0.47315500 0.82715200
v 0.25390800 -0.47315500 0.82715200
v 0.25390800 -0.47315500 0.82715200
v 0.25390800 -0.47315500 0.82715200
v 0.25109100 -0.47312700 0.82712900
v 0.25109100 -0.47312700 0.82712900
v 0.25109100 -0.47312700 0.82712900
v 0.25109100 -0.47312700 0.82712900
v 0.25109100 -0.47312700 0.82712900
v 0.25109100 -0.47312700 0.82712900
v 0.25109100 -0.47312700 0.82712900
v 0.25453200 -0.47268800 0.82675400
v 0.25453200 -0.47268800 0.82675400
v 0.25453200 -0.47268800 0.82675400
v 0.25453200 -0.47268800 0.82675400
v 0.25453200 -0.47268800 0.82675400
v 0.25453200 -0.47268800 0.82675400
v 0.25049500 -0.47244700 0.82654800
v 0.25049500 -0.47244700 0.82654800
v 0.25049500 -0.47244700 0.82654800
v 0.25049500 -0.47244700 0.82654800
v 0.25049500 -0.47244700 0.82654800
v 0.25049500 -0.47244700 0.82654800
v 0.25049500 -0.47244700 0.82654800
v 0.25386900 -0.47210200 0.82625400
v 0.25386900 -0.47210200 0.82625400
v 0.25386900 -0.47210200 0.82625400
v 0.25386900 -0.47210200 0.82625400
v 0.25386900 -0.47210200 0.82625400
v 0.25386900 -0.47210200 0.82625400
v 0.25386900 -0.47210200 0.82625400
v 0.25103700 -0.47235100 0.82646700
v 0.25103700 -0.47235100 0.82646700
v 0.25103700 -0.47235100 0.82646700
v 0.25103700 -0.47235100 0.82646700
v 0.25103700 -0.47235100 0.82646700
v 0.25426000 -0.47190300 0.82608300
v 0.25426000 -0.47190300 0.82608300
v 0.25426000 -0.47190300 0.82608300
v 0.25426000 -0.47190300 0.82608300
v 0.25165400 -0.47165000 0.82586800
v 0.25165400 -0.47165000 0.82586800
v 0.25165400 -0.47165000 0.82586800
v 0.25165400 -0.47165000 0.82586800
v 0.25165400 -0.47165000 0.82586800
v 0.25165400 -0.47165000 0.82586800
v 0.25165400 -0.47165000 0.82586800
v 0.25090800 -0.47169700 0.82590900
v 0.25090800 -0.47169700 0.82590900
v 0.25090800 -0.47169700 0.82590900
v 0.25090800 -0.47169700 0.82590900
v 0.25090800 -0.47169700 0.82590900
v 0.25293800 -0.47152900 0.82576500
v 0.25293800 -0.47152900 0.82576500
v 0.25293800 -0.47152900 0.82576500
v 0.25293800 -0.47152900 0.82576500
v 0.25293800 -0.47152900 0.82576500
v 0.25293800 -0.47152900 0.82576500
v 0.25353300 -0.47131500 0.82558200
v 0.25353300 -0.47131500 0.82558200
v 0.25353300 -0.47131500 0.82558200
v 0.25353300 -0.47131500 0.82558200
v 0.25353300 -0.47131500 0.82558200
v 0.25353300 -0.47131500 0.82558200
v 0.25206300 -0.47111600 0.82541200
v 0.25206300 -0.47111600 0.82541200
v 0.25206300 -0.47111600 0.82541200
v 0.25206300 -0.47111600 0.82541200
v 0.25206300 -0.47111600 0.82541200
v 0.25206300 -0.47111600 0.82541200
v 0.25206300 -0.47111600 0.82541200
vn -0.00150000 -0.64950000 -0.76030000
vn 0.00210000 -0.64980000 -0.76010000
vn -0.63980000 -0.63390000 0.43450000
vn -0.00030000 -0.65020000 -0.75980000
vn -0.39090000 -0.64400000 0.65760000
vn -0.00460000 -0.81260000 0.58280000
vn 0.00210000 -0.64870000 -0.76100000
vn 0.09440000 -0.79900000 0.59390000
vn 0.12010000 -0.76170000 0.63670000
vn -0.00100000 -0.65000000 -0.75990000
vn 0.64100000 -0.60760000 0.46900000
vn 0.59770000 -0.60370000 0.52750000
vn 0.00080000 -0.64870000 -0.76100000
vn 0.00190000 -0.65000000 -0.75990000
vn -0.00160000 -0.64930000 -0.76050000
vn 0.00080000 -0.64870000 -0.76100000
vn -0.14500000 0.78500000 -0.60240000
vn -0.05980000 0.70630000 -0.70540000
vn 0.35930000 0.76920000 -0.52840000
vn 0.92630000 -0.22910000 0.29900000
vn 0.98410000 -0.17770000 -0.00680000
vn 0.71500000 -0.56200000 0.41580000
vn 0.00090000 -0.64620000 -0.76320000
vn 0.00180000 -0.64790000 -0.76180000
vn 0.00010000 -0.65010000 -0.75990000
vn -0.66320000 0.58520000 -0.46670000
vn 0.00130000 -0.64740000 -0.76210000
vn -0.68380000 0.52240000 -0.50940000
vn -0.26550000 0.76570000 -0.58580000
vn 0.00080000 -0.64890000 -0.76090000
vn 0.00190000 -0.64670000 -0.76270000
vn 0.00010000 -0.65000000 -0.75990000
vn 0.00200000 -0.64980000 -0.76010000
vn -0.00010000 -0.64780000 -0.76180000
vn 0.62730000 0.50390000 -0.59380000
vn 0.92130000 0.36430000 -0.13630000
vn 0.47110000 0.73030000 -0.49470000
vn -0.77540000 -0.47310000 0.41830000
vn -0.71330000 -0.57810000 0.39630000
vn -0.99370000 -0.09210000 0.06400000
vn -0.00090000 -0.65020000 -0.75980000
vn -0.00110000 -0.64800000 -0.76160000
vn 0.00010000 -0.64870000 -0.76100000
vn -0.98720000 -0.11600000 0.10970000
vn -0.00040000 -0.65030000 -0.75970000
vn -0.99390000 0.08410000 -0.07120000
vn -0.00010000 -0.65020000 -0.75980000
vn 0.00160000 -0.64660000 -0.76290000
vn -0.75010000 0.51870000 -0.41020000
vn -0.00370000 -0.65020000 -0.75980000
vn -0.00060000 -0.64860000 -0.76110000
vn -0.00090000 -0.64790000 -0.76170000
vn 0.00020000 -0.64900000 -0.76080000
vn 0.88790000 -0.35150000 0.29680000
vn 0.99120000 0.03530000 -0.12790000
vn 0.85800000 -0.37590000 0.35010000
vn 0.95950000 0.27520000 -0.06030000
vn 0.00060000 -0.64970000 -0.76020000
vn 0.77160000 0.46670000 -0.43230000
vn 0.75800000 0.45800000 -0.46440000
vn 0.00030000 -0.65030000 -0.75970000
vn 0.97510000 0.20930000 -0.07330000
vn -0.00190000 -0.64820000 -0.76150000
vn 0.99250000 -0.10090000 -0.06910000
vn 0.00060000 -0.65210000 -0.75810000
vn -0.99780000 -0.06330000 0.02100000
vn -0.00090000 -0.64870000 -0.76110000
vn -0.93940000 0.26190000 -0.22150000
vn 0.00010000 -0.64930000 -0.76050000
vn 0.00130000 -0.65200000 -0.75830000
vn -0.00090000 -0.65010000 -0.75980000
vn -0.88230000 -0.29400000 0.36760000
vn -0.99990000 -0.00940000 0.00860000
vn -0.99000000 -0.13840000 -0.02710000
vn 0.00120000 -0.65200000 -0.75820000
vn -0.41480000 -0.63990000 0.64690000
vn -0.57660000 -0.69430000 0.43080000
vn -0.81850000 -0.37390000 0.43620000
vn -0.00260000 -0.64860000 -0.76110000
vn -0.00440000 -0.64730000 -0.76220000
vn 0.82460000 -0.43180000 0.36540000
vn 0.28750000 -0.71210000 0.64050000
vn -0.00220000 -0.65160000 -0.75860000
vn -0.00050000 -0.64980000 -0.76010000
vn 0.00250000 -0.64890000 -0.76080000
vn -0.89930000 0.34840000 -0.26440000
vn -0.89980000 0.33830000 -0.27550000
vn -0.57060000 0.64270000 -0.51120000
vn -0.51980000 0.64170000 -0.56400000
vn -0.00080000 -0.64860000 -0.76110000
vn 0.00140000 -0.64800000 -0.76160000
vn -0.00360000 -0.65030000 -0.75970000
vn -0.00270000 -0.64870000 -0.76100000
vn -0.00020000 -0.64890000 -0.76090000
vn 0.22390000 0.78470000 -0.57800000
vn 0.13810000 0.73820000 -0.66030000
vn 0.70350000 0.51160000 -0.49330000
vn -0.00340000 -0.64640000 -0.76300000
vn -0.00290000 -0.64610000 -0.76320000
vn -0.00020000 -0.64890000 -0.76090000
vn 0.18250000 -0.79380000 0.58020000
vn -0.29990000 -0.67340000 0.67570000
vn 0.16760000 -0.73330000 0.65890000
vn -0.00020000 -0.64980000 -0.76010000
vn -0.48940000 0.65640000 -0.57410000
vn -0.00070000 -0.64980000 -0.76010000
vn 0.00240000 -0.64870000 -0.76110000
vn -0.00020000 -0.64890000 -0.76090000
vn 0.03770000 0.72980000 -0.68260000
vn 0.00030000 0.64950000 0.76040000
vn 0.00070000 0.64990000 0.76010000
vn 0.00020000 0.64870000 0.76100000
vn -0.29330000 -0.66600000 0.68590000
vn 0.09440000 -0.79890000 0.59400000
vn 0.11720000 -0.75910000 0.64040000
vn 0.59700000 -0.60990000 0.52120000
vn 0.00020000 0.64870000 0.76100000
vn -0.00100000 0.64830000 0.76130000
vn 0.21500000 -0.72570000 0.65360000
vn -0.00100000 0.64850000 0.76120000
vn 0.00080000 0.64900000 0.76080000
vn -0.00030000 0.64970000 0.76020000
vn -0.00010000 0.64960000 0.76030000
vn -0.39060000 -0.64510000 0.65680000
vn -0.63830000 -0.63840000 0.43020000
vn -0.70730000 -0.55000000 0.44410000
vn -0.00080000 0.64810000 0.76150000
vn 0.00040000 0.64990000 0.76000000
vn -0.14540000 0.78120000 -0.60720000
vn -0.05990000 0.70760000 -0.70410000
vn 0.00020000 0.64870000 0.76100000
vn -0.58930000 0.57610000 -0.56650000
vn 0.47110000 0.73070000 -0.49410000
vn -0.00000000 0.64990000 0.76000000
vn 0.00050000 0.64930000 0.76050000
vn 0.00050000 0.64950000 0.76030000
vn 0.62750000 0.50680000 -0.59100000
vn 0.06330000 0.70750000 -0.70390000
vn 0.71530000 -0.56620000 0.40950000
vn 0.92700000 -0.23230000 0.29430000
vn 0.67570000 -0.57450000 0.46200000
vn -0.00050000 0.64810000 0.76160000
vn 0.00220000 0.64990000 0.76000000
vn -0.97840000 -0.13730000 0.15450000
vn 0.00020000 0.64970000 0.76020000
vn -0.77610000 -0.47860000 0.41070000
vn -0.00030000 0.65050000 0.75950000
vn 0.00070000 0.65060000 0.75940000
vn -0.66520000 0.57300000 -0.47870000
vn -0.99430000 0.09670000 -0.04580000
vn -0.99600000 -0.03210000 -0.08360000
vn -0.00080000 0.64820000 0.76150000
vn -0.00110000 0.64880000 0.76090000
vn -0.00050000 0.64990000 0.76000000
vn -0.68400000 0.51650000 -0.51510000
vn 0.00010000 0.64970000 0.76020000
vn -0.00000000 0.64960000 0.76030000
vn 0.95900000 0.27760000 -0.05750000
vn 0.71790000 0.44300000 -0.53700000
vn -0.00080000 0.64990000 0.76000000
vn 0.00080000 0.65030000 0.75970000
vn 0.99050000 0.03060000 -0.13420000
vn 0.00120000 0.65050000 0.75950000
vn 0.00040000 0.65010000 0.75990000
vn -0.00040000 0.64790000 0.76170000
vn 0.99210000 -0.10230000 -0.07330000
vn 0.97510000 0.20950000 -0.07270000
vn 0.96050000 -0.16470000 0.22440000
vn -0.99410000 -0.08650000 0.06550000
vn 0.00070000 0.65040000 0.75960000
vn -0.00090000 0.64990000 0.76000000
vn -0.98760000 -0.11070000 0.11100000
vn -0.93900000 0.25710000 -0.22830000
vn 0.00160000 0.65050000 0.75950000
vn -0.93920000 0.24750000 -0.23800000
vn 0.00230000 0.64830000 0.76140000
vn -0.00030000 0.64790000 0.76180000
vn 0.00020000 0.65010000 0.75990000
vn -0.67230000 -0.63050000 0.38780000
vn -0.00060000 0.64840000 0.76130000
vn -0.99210000 -0.12570000 -0.00360000
vn -0.88060000 -0.28580000 0.37800000
vn -0.00130000 0.64970000 0.76020000
vn 0.00010000 0.64980000 0.76010000
vn 0.99650000 -0.06300000 -0.05440000
vn 0.86280000 -0.34360000 0.37080000
vn 0.00240000 0.64950000 0.76040000
vn 0.75990000 0.44870000 -0.47030000
vn 0.00100000 0.64750000 0.76200000
vn 0.94750000 0.29500000 -0.12360000
vn 0.00190000 0.64810000 0.76150000
vn -0.00070000 0.64940000 0.76050000
vn 0.18270000 -0.79680000 0.57600000
vn -0.00240000 0.64550000 0.76380000
vn 0.00250000 0.64840000 0.76130000
vn 0.82950000 -0.40550000 0.38410000
vn 0.17040000 -0.74480000 0.64510000
vn 0.79440000 -0.42140000 0.43740000
vn -0.00140000 0.64520000 0.76400000
vn -0.89940000 0.33310000 -0.28300000
vn -0.59660000 0.62840000 -0.49920000
vn 0.00250000 0.64900000 0.76070000
vn -0.00040000 0.64960000 0.76030000
vn 0.00280000 0.64930000 0.76050000
vn -0.41480000 -0.64150000 0.64530000
vn -0.00100000 0.64920000 0.76060000
vn -0.57670000 -0.68950000 0.43820000
vn -0.00100000 0.64860000 0.76110000
vn 0.06050000 -0.80830000 0.58570000
vn 0.22360000 0.77950000 -0.58510000
vn 0.68980000 0.47810000 -0.54360000
vn -0.00100000 0.64950000 0.76030000
vn 0.70300000 0.50500000 -0.50080000
vn -0.00100000 0.64860000 0.76110000
vn 0.00210000 0.64820000 0.76140000
vn -0.00420000 0.64670000 0.76270000
vn -0.51650000 0.64630000 -0.56170000
vn -0.56680000 0.64800000 -0.50870000
vn -0.00100000 0.64920000 0.76060000
vn 0.03810000 0.72350000 -0.68920000
vn 0.12550000 0.78110000 -0.61160000
vn 0.00280000 0.64960000 0.76020000
vt 0.14727400 -0.12648000
vt 0.14727400 -0.12648000
vt 0.10000000 -0.48640700
vt 0.14727400 -0.12648000
vt 0.10000000 -0.48640700
vt 0.10000000 -0.48640700
vt 0.02270900 -0.19545800
vt 0.10000000 -0.33730500
vt 0.10000000 -0.33730500
vt 0.02270900 -0.19545800
vt 0.10000000 -0.33730500
vt 0.10000000 -0.33730500
vt 0.02270900 -0.19545800
vt 0.08412200 -0.12142600
vt 0.08412200 -0.12142600
vt 0.08412200 -0.12142600
vt 0.10000000 -0.01232400
vt 0.10000000 -0.01232400
vt 0.10000000 -0.01232400
vt 0.10000000 -0.19877200
vt 0.10000000 -0.19877200
vt 0.10000000 -0.19877200
vt -0.10663700 -0.16384400
vt -0.10663700 -0.16384400
vt -0.10663700 -0.16384400
vt 0.10000000 0.07120900
vt 0.00726600 -0.14845600
vt 0.10000000 0.07120900
vt 0.10000000 0.07120900
vt 0.00726600 -0.14845600
vt 0.00726600 -0.14845600
vt 0.14189400 -0.03261900
vt 0.14189400 -0.03261900
vt 0.14189400 -0.03261900
vt 0.10000000 -0.12316300
vt 0.10000000 -0.12316300
vt 0.10000000 -0.12316300
vt 0.10000000 -0.60358300
vt 0.10000000 -0.60358300
vt 0.10000000 0.60001200
vt 0.19476800 0.01726300
vt 0.19476800 0.01726300
vt 0.19476800 0.01726300
vt 0.10000000 0.60001200
vt -0.08509500 -0.11802700
vt 0.10000000 0.17224800
vt -0.08509500 -0.11802700
vt -0.08509500 -0.11802700
vt 0.10000000 0.17224800
vt 0.11673300 0.08660600
vt 0.11673300 0.08660600
vt 0.11673300 0.08660600
vt 0.11673300 0.08660600
vt 0.10000000 -0.25279500
vt 0.10000000 -0.25279500
vt 0.10000000 -0.25279500
vt 0.10000000 -0.25279500
vt -0.19045700 -0.03770000
vt 0.10000000 -0.03909900
vt 0.10000000 -0.03909900
vt -0.19045700 -0.03770000
vt 0.10000000 -0.03909900
vt -0.19045700 -0.03770000
vt 0.10000000 -0.03909900
vt -0.19045700 -0.03770000
vt 0.10000000 0.49340100
vt 0.15511900 0.12404600
vt 0.10000000 0.49340100
vt 0.15511900 0.12404600
vt -0.14346000 -0.03874900
vt -0.14346000 -0.03874900
vt 0.10000000 0.27460000
vt 0.10000000 0.27460000
vt 0.10000000 0.27460000
vt -0.13775700 0.05046000
vt 0.10000000 0.36684000
vt 0.10000000 0.36684000
vt 0.10000000 0.36684000
vt -0.13775700 0.05046000
vt -0.13775700 0.05046000
vt 0.10000000 -0.38203200
vt 0.10000000 -0.38203200
vt 0.01033300 0.14518700
vt 0.01033300 0.14518700
vt 0.01033300 0.14518700
vt 0.10000000 0.38676600
vt 0.10000000 0.38676600
vt 0.10000000 0.38676600
vt 0.10000000 0.38676600
vt 0.06989300 0.18397300
vt 0.06989300 0.18397300
vt 0.06989300 0.18397300
vt -0.16109500 0.11078200
vt -0.16109500 0.11078200
vt 0.10000000 0.12046600
vt 0.10000000 0.12046600
vt 0.10000000 0.12046600
vt -0.16109500 0.11078200
vt -0.08413900 0.12248600
vt -0.08413900 0.12248600
vt 0.10000000 -0.46365700
vt 0.10000000 0.45589600
vt 0.10000000 -0.46365700
vt -0.08413900 0.12248600
vt 0.10000000 0.25919100
vt -0.05338400 0.18937300
vt -0.05338400 0.18937300
vt -0.05338400 0.18937300
vt 0.10000000 0.25919100
vt -0.02043700 -0.19679400
vt -0.02043700 -0.19679400
vt -0.02043700 -0.19679400
vt 0.00000000 -0.43957200
vt 0.00000000 -0.43957200
vt 0.00000000 -0.43957200
vt 0.00000000 -0.33353700
vt 0.08186100 -0.18007100
vt 0.08186100 -0.18007100
vt 0.00000000 -0.33353700
vt 0.08186100 -0.18007100
vt -0.10905900 -0.16601800
vt -0.10905900 -0.16601800
vt -0.10905900 -0.16601800
vt 0.00000000 -0.53511900
vt 0.00000000 -0.53511900
vt 0.00000000 -0.53511900
vt 0.04770900 -0.13976600
vt 0.04770900 -0.13976600
vt 0.20000000 0.04932800
vt 0.20000000 0.04932800
vt 0.04770900 -0.13976600
vt 0.20000000 0.04932800
vt 0.20000000 -0.05237600
vt -0.05020400 -0.13791500
vt -0.05020400 -0.13791500
vt -0.05020400 -0.13791500
vt 0.20000000 -0.05237600
vt 0.20000000 -0.05237600
vt 0.00000000 -0.22695700
vt 0.00000000 -0.22695700
vt 0.00000000 -0.22695700
vt 0.16201900 -0.11353200
vt 0.16201900 -0.11353200
vt 0.00000000 0.60512100
vt -0.17672700 -0.08625900
vt 0.00000000 -0.60899700
vt -0.17672700 -0.08625900
vt 0.13018100 -0.06217500
vt 0.20000000 0.16879900
vt 0.20000000 0.16879900
vt 0.20000000 0.16879900
vt 0.13018100 -0.06217500
vt 0.13018100 -0.06217500
vt 0.13018100 -0.06217500
vt 0.20000000 0.16879900
vt -0.13269500 -0.05970700
vt -0.13269500 -0.05970700
vt 0.20000000 -0.17220600
vt 0.20000000 -0.17220600
vt -0.13269500 -0.05970700
vt -0.13269500 -0.05970700
vt 0.20000000 -0.17220600
vt 0.19668500 -0.00533000
vt 0.19668500 -0.00533000
vt 0.19668500 -0.00533000
vt 0.00000000 -0.11012500
vt 0.00000000 -0.11012500
vt 0.00000000 -0.11012500
vt 0.00000000 0.49752200
vt -0.19605500 0.02571400
vt -0.19605500 0.02571400
vt 0.00000000 0.49752200
vt 0.00000000 0.49752200
vt -0.19605500 0.02571400
vt 0.00000000 0.49752200
vt 0.12901800 0.06729700
vt 0.12901800 0.06729700
vt 0.12901800 0.06729700
vt 0.20000000 0.30771400
vt 0.12901800 0.06729700
vt 0.20000000 0.30771400
vt 0.20000000 0.30771400
vt -0.14364300 0.03808700
vt -0.14364300 0.03808700
vt 0.20000000 -0.27450900
vt 0.20000000 -0.27450900
vt -0.14364300 0.03808700
vt 0.00000000 -0.00329000
vt 0.17361000 0.09645300
vt 0.00000000 -0.00329000
vt 0.17361000 0.09645300
vt -0.07822800 0.12111700
vt 0.20000000 -0.38522900
vt -0.07822800 0.12111700
vt -0.07822800 0.12111700
vt 0.20000000 -0.38522900
vt 0.20000000 -0.38522900
vt 0.20000000 -0.38522900
vt -0.15567200 0.12189900
vt 0.00000000 0.39074700
vt 0.00000000 0.39074700
vt -0.15567200 0.12189900
vt -0.15567200 0.12189900
vt 0.04192200 0.14065900
vt 0.20000000 0.42778300
vt 0.04192200 0.14065900
vt 0.20000000 0.42778300
vt 0.04192200 0.14065900
vt 0.20000000 -0.47123900
vt 0.00000000 0.10285300
vt 0.00000000 0.10285300
vt 0.09999300 0.16949600
vt 0.00000000 0.10285300
vt 0.09999300 0.16949600
vt 0.09999300 0.16949600
vt -0.04124300 0.18970200
vt 0.00000000 0.25226800
vt 0.00000000 0.25226800
vt -0.04124300 0.18970200
vt 0.00000000 0.25226800
vt 0.00000000 0.25226800
vt -0.04124300 0.18970200
f 40/40/40 144/144/144 169/169/169
f 44/44/44 172/172/172 66/66/66
f 68/68/68 173/173/173 86/86/86
f 87/87/87 175/175/175 200/200/200
f 89/89/89 201/201/201 217/217/217
f 88/88/88 218/218/218 105/105/105
f 109/109/109 220/220/220 96/96/96
f 95/95/95 221/221/221 210/210/210
f 97/97/97 213/213/213 59/59/59
f 60/60/60 211/211/211 188/188/188
f 62/62/62 190/190/190 167/167/167
f 64/64/64 166/166/166 21/21/21
f 20/20/20 168/168/168 140/140/140
f 22/22/22 139/139/139 11/11/11
f 12/12/12 141/141/141 116/116/116
f 9/9/9 119/119/119 115/115/115
f 8/8/8 114/114/114 6/6/6
f 5/5/5 113/113/113 124/124/124
f 3/3/3 125/125/125 39/39/39
f 38/38/38 126/126/126 146/146/146
f 34/34/34 42/42/42 52/52/52
f 53/53/53 43/43/43 69/69/69
f 51/51/51 67/67/67 90/90/90
f 50/50/50 92/92/92 83/83/83
f 85/85/85 91/91/91 107/107/107
f 84/84/84 106/106/106 104/104/104
f 100/100/100 108/108/108 94/94/94
f 99/99/99 98/98/98 80/80/80
f 79/79/79 93/93/93 63/63/63
f 75/75/75 65/65/65 70/70/70
f 71/71/71 61/61/61 45/45/45
f 47/47/47 58/58/58 25/25/25
f 48/48/48 23/23/23 31/31/31
f 27/27/27 24/24/24 7/7/7
f 30/30/30 13/13/13 16/16/16
f 15/15/15 10/10/10 1/1/1
f 14/14/14 2/2/2 33/33/33
f 32/32/32 4/4/4 41/41/41
f 193/193/193 101/101/101 209/209/209
f 205/205/205 102/102/102 76/76/76
f 207/207/207 77/77/77 179/179/179
f 182/182/182 78/78/78 72/72/72
f 181/181/181 74/74/74 151/151/151
f 150/150/150 73/73/73 46/46/46
f 149/149/149 49/49/49 26/26/26
f 155/155/155 28/28/28 132/132/132
f 129/129/129 29/29/29 17/17/17
f 130/130/130 18/18/18 138/138/138
f 133/133/133 19/19/19 37/37/37
f 137/137/137 35/35/35 159/159/159
f 158/158/158 36/36/36 57/57/57
f 162/162/162 55/55/55 185/185/185
f 186/186/186 56/56/56 198/198/198
f 196/196/196 54/54/54 81/81/81
f 197/197/197 82/82/82 103/103/103
f 157/157/157 145/145/145 123/123/123
f 156/156/156 122/122/122 136/136/136
f 135/135/135 121/121/121 110/110/110
f 134/134/134 111/111/111 128/128/128
f 131/131/131 112/112/112 117/117/117
f 127/127/127 118/118/118 152/152/152
f 153/153/153 120/120/120 142/142/142
f 148/148/148 143/143/143 163/163/163
f 154/154/154 164/164/164 178/178/178
f 177/177/177 165/165/165 189/189/189
f 176/176/176 191/191/191 215/215/215
f 180/180/180 214/214/214 208/208/208
f 206/206/206 212/212/212 219/219/219
f 204/204/204 222/222/222 195/195/195
f 194/194/194 216/216/216 199/199/199
f 192/192/192 203/203/203 184/184/184
f 187/187/187 202/202/202 174/174/174
f 183/183/183 171/171/171 160/160/160
f 161/161/161 170/170/170 147/147/147

